# OBJ file building_3_5_2_0.5.obj
# 11 vertices
# 14 normals
# 18 faces
v 0.0000 0.0000 0.0000
v 2.0000 0.0000 0.0000
v -1.0000 0.0000 1.7321
v -1.0000 0.0000 -1.7321
v 1.8500 2.5000 0.0000
v -0.9250 2.5000 1.6021
v -0.9250 2.5000 -1.6021
v 0.5000 5.0000 0.0000
v -0.2500 5.0000 0.4330
v -0.2500 5.0000 -0.4330
v 0.0000 5.0000 0.0000
vn 0.0000 -1.0000 0.0000
vn 0.0000 1.0000 0.0000
vn 0.4991 0.0599 0.8645
vn 0.4991 0.0599 0.8645
vn -0.9982 0.0599 0.0000
vn -0.9982 0.0599 0.0000
vn 0.4991 0.0599 -0.8645
vn 0.4991 0.0599 -0.8645
vn 0.4400 0.4751 0.7620
vn 0.4400 0.4751 0.7620
vn -0.8799 0.4751 0.0000
vn -0.8799 0.4751 0.0000
vn 0.4400 0.4751 -0.7620
vn 0.4400 0.4751 -0.7620
f 3//1 1//1 2//1
f 4//1 1//1 3//1
f 2//1 1//1 4//1
f 6//3 3//3 2//3
f 5//4 6//4 2//4
f 7//5 4//5 3//5
f 6//6 7//6 3//6
f 5//7 2//7 4//7
f 7//8 5//8 4//8
f 9//9 6//9 5//9
f 8//10 9//10 5//10
f 10//11 7//11 6//11
f 9//12 10//12 6//12
f 8//13 5//13 7//13
f 10//14 8//14 7//14
f 8//2 11//2 9//2
f 9//2 11//2 10//2
f 10//2 11//2 8//2
